<svg width="85mm" height="55mm" viewBox="0 0 850 550" fill="none" xmlns="http://www.w3.org/2000/svg">
  <defs>
    <linearGradient id="bg" x1="0" y1="0" x2="850" y2="550">
      <stop offset="0%" stop-color="#0a0f1e"/>
      <stop offset="60%" stop-color="#0f1729"/>
      <stop offset="100%" stop-color="#162035"/>
    </linearGradient>
    <linearGradient id="badge" x1="0" y1="0" x2="1" y2="1">
      <stop offset="0%" stop-color="#fbbf24"/>
      <stop offset="100%" stop-color="#d47a00"/>
    </linearGradient>
  </defs>

  <!-- Background -->
  <rect width="850" height="550" fill="url(#bg)"/>

  <!-- Thin amber accent along top -->
  <rect x="0" y="0" width="850" height="3.5" fill="#f59e0b" opacity="0.8"/>

  <!-- ═══ Left column: identity + contact ═══ -->

  <!-- Name (14pt equivalent = ~50 units) -->
  <text x="60" y="100" font-family="Arial, Helvetica, sans-serif" font-size="46" font-weight="900" fill="white" letter-spacing="0.5">Thorsten Schreier</text>

  <!-- Title -->
  <text x="60" y="138" font-family="Arial, Helvetica, sans-serif" font-size="20" font-weight="400" fill="#fbbf24" letter-spacing="2.5">VERSICHERUNGSMAKLER</text>

  <!-- Amber divider -->
  <rect x="60" y="165" width="60" height="2.5" rx="1.25" fill="#f59e0b" opacity="0.6"/>

  <!-- Contact details (9pt = ~32 units) -->
  <!-- Phone -->
  <g transform="translate(60, 210)">
    <rect x="0" y="-14" width="28" height="28" rx="7" fill="#1e2d4a"/>
    <path d="M9,4 L9,6 Q9,12 15,15 L17,13 L14,11 L13,13 Q11,12 10,10 L12,9 L10,6 Z" fill="#8ba4c8" transform="translate(0.5,-0.5)"/>
    <text x="42" y="5" font-family="Arial, Helvetica, sans-serif" font-size="28" font-weight="400" fill="white">0173 8444 4426</text>
  </g>

  <!-- Email -->
  <g transform="translate(60, 262)">
    <rect x="0" y="-14" width="28" height="28" rx="7" fill="#1e2d4a"/>
    <rect x="6" y="-5" width="16" height="11" rx="2" fill="none" stroke="#8ba4c8" stroke-width="1.3"/>
    <path d="M6,-5 L14,1 L22,-5" fill="none" stroke="#8ba4c8" stroke-width="1.3"/>
    <text x="42" y="5" font-family="Arial, Helvetica, sans-serif" font-size="24" font-weight="400" fill="white">thorsten.schreier@nurbanum.de</text>
  </g>

  <!-- Address -->
  <g transform="translate(60, 314)">
    <rect x="0" y="-14" width="28" height="28" rx="7" fill="#1e2d4a"/>
    <path d="M14,-6 C11,-6 8.5,-3.5 8.5,-1 C8.5,3 14,8 14,8 C14,8 19.5,3 19.5,-1 C19.5,-3.5 17,-6 14,-6 Z" fill="none" stroke="#8ba4c8" stroke-width="1.3"/>
    <circle cx="14" cy="-0.5" r="2.2" fill="#8ba4c8"/>
    <text x="42" y="-1" font-family="Arial, Helvetica, sans-serif" font-size="24" font-weight="400" fill="white">Hans-Sachs-Straße 2</text>
    <text x="42" y="28" font-family="Arial, Helvetica, sans-serif" font-size="24" font-weight="400" fill="#8ba4c8">90513 Zirndorf</text>
  </g>

  <!-- Website -->
  <g transform="translate(60, 378)">
    <rect x="0" y="-14" width="28" height="28" rx="7" fill="#1e2d4a"/>
    <circle cx="14" cy="0" r="7" fill="none" stroke="#8ba4c8" stroke-width="1.3"/>
    <line x1="7" y1="0" x2="21" y2="0" stroke="#8ba4c8" stroke-width="1"/>
    <ellipse cx="14" cy="0" rx="3.5" ry="7" fill="none" stroke="#8ba4c8" stroke-width="1"/>
    <text x="42" y="5" font-family="Arial, Helvetica, sans-serif" font-size="28" font-weight="500" fill="#fbbf24">nurbanum.de</text>
  </g>

  <!-- ═══ Right column: QR code ═══ -->
  <!-- QR code: 25mm = 250 units, positioned right side, vertically centered -->
  <g transform="translate(580, 135) scale(9.2)">
    <rect x="-1.5" y="-1.5" width="28" height="28" rx="2.5" fill="#1e2d4a"/>
    <path d="M0,0H1V1H0zM1,0H2V1H1zM2,0H3V1H2zM3,0H4V1H3zM4,0H5V1H4zM5,0H6V1H5zM6,0H7V1H6zM8,0H9V1H8zM9,0H10V1H9zM10,0H11V1H10zM13,0H14V1H13zM14,0H15V1H14zM18,0H19V1H18zM19,0H20V1H19zM20,0H21V1H20zM21,0H22V1H21zM22,0H23V1H22zM23,0H24V1H23zM24,0H25V1H24zM0,1H1V2H0zM6,1H7V2H6zM8,1H9V2H8zM9,1H10V2H9zM11,1H12V2H11zM13,1H14V2H13zM18,1H19V2H18zM24,1H25V2H24zM0,2H1V3H0zM2,2H3V3H2zM3,2H4V3H3zM4,2H5V3H4zM6,2H7V3H6zM8,2H9V3H8zM10,2H11V3H10zM11,2H12V3H11zM12,2H13V3H12zM13,2H14V3H13zM18,2H19V3H18zM20,2H21V3H20zM21,2H22V3H21zM22,2H23V3H22zM24,2H25V3H24zM0,3H1V4H0zM2,3H3V4H2zM3,3H4V4H3zM4,3H5V4H4zM6,3H7V4H6zM13,3H14V4H13zM15,3H16V4H15zM16,3H17V4H16zM18,3H19V4H18zM20,3H21V4H20zM21,3H22V4H21zM22,3H23V4H22zM24,3H25V4H24zM0,4H1V5H0zM2,4H3V5H2zM3,4H4V5H3zM4,4H5V5H4zM6,4H7V5H6zM8,4H9V5H8zM11,4H12V5H11zM12,4H13V5H12zM14,4H15V5H14zM18,4H19V5H18zM20,4H21V5H20zM21,4H22V5H21zM22,4H23V5H22zM24,4H25V5H24zM0,5H1V6H0zM6,5H7V6H6zM9,5H10V6H9zM10,5H11V6H10zM11,5H12V6H11zM14,5H15V6H14zM18,5H19V6H18zM24,5H25V6H24zM0,6H1V7H0zM1,6H2V7H1zM2,6H3V7H2zM3,6H4V7H3zM4,6H5V7H4zM5,6H6V7H5zM6,6H7V7H6zM8,6H9V7H8zM10,6H11V7H10zM12,6H13V7H12zM14,6H15V7H14zM16,6H17V7H16zM18,6H19V7H18zM19,6H20V7H19zM20,6H21V7H20zM21,6H22V7H21zM22,6H23V7H22zM23,6H24V7H23zM24,6H25V7H24zM9,7H10V8H9zM11,7H12V8H11zM13,7H14V8H13zM16,7H17V8H16zM0,8H1V9H0zM3,8H4V9H3zM4,8H5V9H4zM5,8H6V9H5zM6,8H7V9H6zM7,8H8V9H7zM8,8H9V9H8zM11,8H12V9H11zM13,8H14V9H13zM16,8H17V9H16zM17,8H18V9H17zM20,8H21V9H20zM22,8H23V9H22zM23,8H24V9H23zM24,8H25V9H24zM2,9H3V10H2zM4,9H5V10H4zM10,9H11V10H10zM11,9H12V10H11zM13,9H14V10H13zM14,9H15V10H14zM15,9H16V10H15zM17,9H18V10H17zM19,9H20V10H19zM20,9H21V10H20zM21,9H22V10H21zM22,9H23V10H22zM23,9H24V10H23zM0,10H1V11H0zM1,10H2V11H1zM3,10H4V11H3zM4,10H5V11H4zM6,10H7V11H6zM7,10H8V11H7zM8,10H9V11H8zM9,10H10V11H9zM10,10H11V11H10zM11,10H12V11H11zM12,10H13V11H12zM13,10H14V11H13zM15,10H16V11H15zM16,10H17V11H16zM18,10H19V11H18zM21,10H22V11H21zM24,10H25V11H24zM2,11H3V12H2zM3,11H4V12H3zM4,11H5V12H4zM5,11H6V12H5zM7,11H8V12H7zM8,11H9V12H8zM10,11H11V12H10zM12,11H13V12H12zM13,11H14V12H13zM18,11H19V12H18zM19,11H20V12H19zM20,11H21V12H20zM21,11H22V12H21zM22,11H23V12H22zM23,11H24V12H23zM24,11H25V12H24zM1,12H2V13H1zM6,12H7V13H6zM9,12H10V13H9zM10,12H11V13H10zM12,12H13V13H12zM13,12H14V13H13zM15,12H16V13H15zM18,12H19V13H18zM19,12H20V13H19zM24,12H25V13H24zM0,13H1V14H0zM1,13H2V14H1zM2,13H3V14H2zM5,13H6V14H5zM7,13H8V14H7zM8,13H9V14H8zM13,13H14V14H13zM14,13H15V14H14zM15,13H16V14H15zM16,13H17V14H16zM17,13H18V14H17zM20,13H21V14H20zM23,13H24V14H23zM0,14H1V15H0zM1,14H2V15H1zM2,14H3V15H2zM3,14H4V15H3zM6,14H7V15H6zM7,14H8V15H7zM11,14H12V15H11zM12,14H13V15H12zM13,14H14V15H13zM15,14H16V15H15zM16,14H17V15H16zM18,14H19V15H18zM20,14H21V15H20zM21,14H22V15H21zM22,14H23V15H22zM23,14H24V15H23zM24,14H25V15H24zM0,15H1V16H0zM3,15H4V16H3zM9,15H10V16H9zM10,15H11V16H10zM11,15H12V16H11zM15,15H16V16H15zM19,15H20V16H19zM21,15H22V16H21zM22,15H23V16H22zM24,15H25V16H24zM0,16H1V17H0zM2,16H3V17H2zM3,16H4V17H3zM6,16H7V17H6zM14,16H15V17H14zM16,16H17V17H16zM17,16H18V17H17zM18,16H19V17H18zM19,16H20V17H19zM20,16H21V17H20zM22,16H23V17H22zM23,16H24V17H23zM8,17H9V18H8zM9,17H10V18H9zM11,17H12V18H11zM12,17H13V18H12zM13,17H14V18H13zM14,17H15V18H14zM16,17H17V18H16zM20,17H21V18H20zM22,17H23V18H22zM23,17H24V18H23zM0,18H1V19H0zM1,18H2V19H1zM2,18H3V19H2zM3,18H4V19H3zM4,18H5V19H4zM5,18H6V19H5zM6,18H7V19H6zM8,18H9V19H8zM9,18H10V19H9zM11,18H12V19H11zM16,18H17V19H16zM18,18H19V19H18zM20,18H21V19H20zM24,18H25V19H24zM0,19H1V20H0zM6,19H7V20H6zM8,19H9V20H8zM9,19H10V20H9zM10,19H11V20H10zM12,19H13V20H12zM14,19H15V20H14zM15,19H16V20H15zM16,19H17V20H16zM20,19H21V20H20zM23,19H24V20H23zM0,20H1V21H0zM2,20H3V21H2zM3,20H4V21H3zM4,20H5V21H4zM6,20H7V21H6zM8,20H9V21H8zM9,20H10V21H9zM10,20H11V21H10zM12,20H13V21H12zM13,20H14V21H13zM14,20H15V21H14zM15,20H16V21H15zM16,20H17V21H16zM17,20H18V21H17zM18,20H19V21H18zM19,20H20V21H19zM20,20H21V21H20zM24,20H25V21H24zM0,21H1V22H0zM2,21H3V22H2zM3,21H4V22H3zM4,21H5V22H4zM6,21H7V22H6zM8,21H9V22H8zM9,21H10V22H9zM14,21H15V22H14zM15,21H16V22H15zM16,21H17V22H16zM17,21H18V22H17zM18,21H19V22H18zM23,21H24V22H23zM24,21H25V22H24zM0,22H1V23H0zM2,22H3V23H2zM3,22H4V23H3zM4,22H5V23H4zM6,22H7V23H6zM10,22H11V23H10zM12,22H13V23H12zM14,22H15V23H14zM15,22H16V23H15zM17,22H18V23H17zM20,22H21V23H20zM21,22H22V23H21zM22,22H23V23H22zM23,22H24V23H23zM24,22H25V23H24zM0,23H1V24H0zM6,23H7V24H6zM14,23H15V24H14zM17,23H18V24H17zM18,23H19V24H18zM19,23H20V24H19zM20,23H21V24H20zM22,23H24V24H22zM24,23H25V24H24zM0,24H1V25H0zM1,24H2V25H1zM2,24H3V25H2zM3,24H4V25H3zM4,24H5V25H4zM5,24H6V25H5zM6,24H7V25H6zM8,24H9V25H8zM10,24H11V25H10zM13,24H14V25H13zM14,24H15V25H14zM16,24H17V25H16zM17,24H18V25H17zM21,24H22V25H21zM24,24H25V25H24z" fill="white" fill-rule="nonzero" stroke="none"/>
  </g>

  <!-- ═══ Bottom bar ═══ -->
  <!-- Thin divider -->
  <rect x="60" y="475" width="730" height="1" fill="#1e2d4a"/>

  <!-- Small logo + registration -->
  <rect x="60" y="496" width="28" height="28" rx="7" fill="url(#badge)"/>
  <text x="74" y="510" dy="0.36em" font-family="Arial, Helvetica, sans-serif" font-size="17" font-weight="900" fill="#0a0f1e" text-anchor="middle">N</text>

  <text x="100" y="508" font-family="Arial, Helvetica, sans-serif" font-size="14" font-weight="600" fill="#5a7aaa" letter-spacing="0.3">Nurbanum Versicherungsmakler</text>
  <text x="100" y="524" font-family="Arial, Helvetica, sans-serif" font-size="12" font-weight="400" fill="#3a5580" letter-spacing="0.3">IHK Nürnberg · Reg.-Nr. D-9TPM-5XPAS-59 · § 34d Abs. 1 GewO</text>
</svg>
